<?xml version="1.0" encoding="UTF-8"?>
<svg xmlns="http://www.w3.org/2000/svg" xmlns:xlink="http://www.w3.org/1999/xlink" width="2000" height="2000" viewBox="0 0 2000 2000">
<defs>
<clipPath id="clip-0">

</clipPath>
<clipPath id="clip-1">
<path clip-rule="nonzero" d="M 819.34375 786.699219 C 818.285156 780.210938 814.070312 774.671875 808.121094 771.859375 C 677.199219 710.050781 551.296875 693.660156 549.867188 693.480469 C 547.421875 693.171875 545.6875 690.941406 545.992188 688.5 C 546.277344 686.238281 548.199219 684.589844 550.414062 684.589844 C 550.601562 684.589844 550.785156 684.601562 550.972656 684.628906 C 552.433594 684.808594 682.097656 701.660156 815.789062 765.628906 C 813.910156 754.820312 811.824219 743.519531 811.023438 741.539062 C 810.5625 740.398438 809.707031 739.46875 808.601562 738.929688 C 784.554688 727.179688 511.726562 598.539062 296.710938 701.628906 C 284.703125 707.390625 278.644531 721.109375 282.804688 733.910156 C 287.660156 748.859375 304.316406 755.96875 318.859375 749.988281 C 365.578125 730.78125 465.285156 700.058594 579.09375 726.988281 C 728.523438 762.351562 783.410156 791.769531 814.375 791.710938 C 817.128906 791.699219 819.34375 789.449219 819.34375 786.699219 Z M 819.34375 786.699219 "/>
</clipPath>
<clipPath id="clip-2">
<path clip-rule="nonzero" d="M 819.34375 786.699219 C 818.285156 780.210938 814.070312 774.671875 808.121094 771.859375 C 677.199219 710.050781 551.296875 693.660156 549.867188 693.480469 C 547.421875 693.171875 545.6875 690.941406 545.992188 688.5 C 546.277344 686.238281 548.199219 684.589844 550.414062 684.589844 C 550.601562 684.589844 550.785156 684.601562 550.972656 684.628906 C 552.433594 684.808594 682.097656 701.660156 815.789062 765.628906 C 813.910156 754.820312 811.824219 743.519531 811.023438 741.539062 C 810.5625 740.398438 809.707031 739.46875 808.601562 738.929688 C 784.554688 727.179688 511.726562 598.539062 296.710938 701.628906 C 284.703125 707.390625 278.644531 721.109375 282.804688 733.910156 C 287.660156 748.859375 304.316406 755.96875 318.859375 749.988281 C 365.578125 730.78125 465.285156 700.058594 579.09375 726.988281 C 728.523438 762.351562 783.410156 791.769531 814.375 791.710938 C 817.128906 791.699219 819.34375 789.449219 819.34375 786.699219 "/>
</clipPath>
<linearGradient id="linear-pattern-0" gradientUnits="userSpaceOnUse" x1="0.410385" y1="0" x2="1.327662" y2="0" gradientTransform="matrix(0.00000001, -210.656, 210.656, 0.00000001, 550.42, 878.22)">
<stop offset="0" stop-color="rgb(95.043945%, 94.953918%, 94.976807%)" stop-opacity="1"/>
<stop offset="0.015625" stop-color="rgb(94.958496%, 94.866943%, 94.889832%)" stop-opacity="1"/>
<stop offset="0.03125" stop-color="rgb(94.78302%, 94.688416%, 94.71283%)" stop-opacity="1"/>
<stop offset="0.046875" stop-color="rgb(94.610596%, 94.512939%, 94.537354%)" stop-opacity="1"/>
<stop offset="0.0625" stop-color="rgb(94.438171%, 94.337463%, 94.363403%)" stop-opacity="1"/>
<stop offset="0.078125" stop-color="rgb(94.265747%, 94.161987%, 94.187927%)" stop-opacity="1"/>
<stop offset="0.09375" stop-color="rgb(94.091797%, 93.983459%, 94.010925%)" stop-opacity="1"/>
<stop offset="0.109375" stop-color="rgb(93.919373%, 93.807983%, 93.835449%)" stop-opacity="1"/>
<stop offset="0.125" stop-color="rgb(93.746948%, 93.632507%, 93.661499%)" stop-opacity="1"/>
<stop offset="0.140625" stop-color="rgb(93.574524%, 93.457031%, 93.486023%)" stop-opacity="1"/>
<stop offset="0.15625" stop-color="rgb(93.399048%, 93.278503%, 93.309021%)" stop-opacity="1"/>
<stop offset="0.171875" stop-color="rgb(93.226624%, 93.103027%, 93.133545%)" stop-opacity="1"/>
<stop offset="0.1875" stop-color="rgb(93.054199%, 92.927551%, 92.959595%)" stop-opacity="1"/>
<stop offset="0.203125" stop-color="rgb(92.881775%, 92.752075%, 92.784119%)" stop-opacity="1"/>
<stop offset="0.21875" stop-color="rgb(92.706299%, 92.573547%, 92.607117%)" stop-opacity="1"/>
<stop offset="0.234375" stop-color="rgb(92.533875%, 92.398071%, 92.431641%)" stop-opacity="1"/>
<stop offset="0.25" stop-color="rgb(92.36145%, 92.222595%, 92.25769%)" stop-opacity="1"/>
<stop offset="0.265625" stop-color="rgb(92.189026%, 92.047119%, 92.082214%)" stop-opacity="1"/>
<stop offset="0.28125" stop-color="rgb(92.01355%, 91.868591%, 91.905212%)" stop-opacity="1"/>
<stop offset="0.296875" stop-color="rgb(91.842651%, 91.694641%, 91.731262%)" stop-opacity="1"/>
<stop offset="0.3125" stop-color="rgb(91.668701%, 91.517639%, 91.555786%)" stop-opacity="1"/>
<stop offset="0.328125" stop-color="rgb(91.496277%, 91.342163%, 91.38031%)" stop-opacity="1"/>
<stop offset="0.34375" stop-color="rgb(91.322327%, 91.163635%, 91.203308%)" stop-opacity="1"/>
<stop offset="0.359375" stop-color="rgb(91.149902%, 90.989685%, 91.029358%)" stop-opacity="1"/>
<stop offset="0.375" stop-color="rgb(90.977478%, 90.812683%, 90.853882%)" stop-opacity="1"/>
<stop offset="0.390625" stop-color="rgb(90.805054%, 90.637207%, 90.678406%)" stop-opacity="1"/>
<stop offset="0.40625" stop-color="rgb(90.629578%, 90.458679%, 90.501404%)" stop-opacity="1"/>
<stop offset="0.421875" stop-color="rgb(90.458679%, 90.284729%, 90.327454%)" stop-opacity="1"/>
<stop offset="0.4375" stop-color="rgb(90.284729%, 90.107727%, 90.151978%)" stop-opacity="1"/>
<stop offset="0.453125" stop-color="rgb(90.110779%, 89.930725%, 89.974976%)" stop-opacity="1"/>
<stop offset="0.46875" stop-color="rgb(89.936829%, 89.753723%, 89.7995%)" stop-opacity="1"/>
<stop offset="0.484375" stop-color="rgb(89.76593%, 89.579773%, 89.625549%)" stop-opacity="1"/>
<stop offset="0.5" stop-color="rgb(89.59198%, 89.402771%, 89.450073%)" stop-opacity="1"/>
<stop offset="0.515625" stop-color="rgb(89.41803%, 89.225769%, 89.273071%)" stop-opacity="1"/>
<stop offset="0.53125" stop-color="rgb(89.24408%, 89.048767%, 89.097595%)" stop-opacity="1"/>
<stop offset="0.546875" stop-color="rgb(89.073181%, 88.874817%, 88.923645%)" stop-opacity="1"/>
<stop offset="0.5625" stop-color="rgb(88.899231%, 88.697815%, 88.748169%)" stop-opacity="1"/>
<stop offset="0.578125" stop-color="rgb(88.725281%, 88.520813%, 88.571167%)" stop-opacity="1"/>
<stop offset="0.59375" stop-color="rgb(88.551331%, 88.343811%, 88.395691%)" stop-opacity="1"/>
<stop offset="0.609375" stop-color="rgb(88.380432%, 88.169861%, 88.221741%)" stop-opacity="1"/>
<stop offset="0.625" stop-color="rgb(88.206482%, 87.992859%, 88.046265%)" stop-opacity="1"/>
<stop offset="0.75" stop-color="rgb(88.020325%, 87.802124%, 87.857056%)" stop-opacity="1"/>
<stop offset="1" stop-color="rgb(87.921143%, 87.701416%, 87.756348%)" stop-opacity="1"/>
</linearGradient>
<clipPath id="clip-3">
<path clip-rule="nonzero" d="M 304 739 L 425 739 L 425 790 L 304 790 Z M 304 739 "/>
</clipPath>
<clipPath id="clip-4">
<path clip-rule="nonzero" d="M 414.898438 760.96875 C 419.59375 754.421875 422.648438 747.160156 424.089844 739.238281 C 380.648438 746 304.539062 769.800781 304.539062 769.800781 C 304.546875 769.898438 304.546875 769.960938 304.546875 769.960938 C 310.628906 779.371094 324.316406 784.730469 337.394531 787.78125 C 361.195312 793.328125 386.535156 787.859375 404.957031 771.789062 C 408.652344 768.570312 412.019531 764.980469 414.898438 760.96875 Z M 414.898438 760.96875 "/>
</clipPath>
<clipPath id="clip-5">
<path clip-rule="nonzero" d="M 414.898438 760.96875 C 419.59375 754.421875 422.648438 747.160156 424.089844 739.238281 C 380.648438 746 304.539062 769.800781 304.539062 769.800781 C 304.546875 769.898438 304.546875 769.960938 304.546875 769.960938 C 310.628906 779.371094 324.316406 784.730469 337.394531 787.78125 C 361.195312 793.328125 386.535156 787.859375 404.957031 771.789062 C 408.652344 768.570312 412.019531 764.980469 414.898438 760.96875 "/>
</clipPath>
<linearGradient id="linear-pattern-1" gradientUnits="userSpaceOnUse" x1="0.402977" y1="0" x2="0.659745" y2="0" gradientTransform="matrix(0.00000001, -210.657, 210.657, 0.00000001, 364.316, 878.22)">
<stop offset="0" stop-color="rgb(95.133972%, 95.045471%, 95.066833%)" stop-opacity="1"/>
<stop offset="0.0625" stop-color="rgb(95.037842%, 94.947815%, 94.970703%)" stop-opacity="1"/>
<stop offset="0.125" stop-color="rgb(94.844055%, 94.750977%, 94.773865%)" stop-opacity="1"/>
<stop offset="0.1875" stop-color="rgb(94.648743%, 94.551086%, 94.5755%)" stop-opacity="1"/>
<stop offset="0.25" stop-color="rgb(94.456482%, 94.355774%, 94.380188%)" stop-opacity="1"/>
<stop offset="0.3125" stop-color="rgb(94.262695%, 94.15741%, 94.18335%)" stop-opacity="1"/>
<stop offset="0.375" stop-color="rgb(94.067383%, 93.959045%, 93.986511%)" stop-opacity="1"/>
<stop offset="0.4375" stop-color="rgb(93.873596%, 93.762207%, 93.789673%)" stop-opacity="1"/>
<stop offset="0.5" stop-color="rgb(93.681335%, 93.565369%, 93.59436%)" stop-opacity="1"/>
<stop offset="0.5625" stop-color="rgb(93.487549%, 93.36853%, 93.397522%)" stop-opacity="1"/>
<stop offset="0.625" stop-color="rgb(93.292236%, 93.170166%, 93.200684%)" stop-opacity="1"/>
<stop offset="0.6875" stop-color="rgb(93.099976%, 92.974854%, 93.005371%)" stop-opacity="1"/>
<stop offset="0.75" stop-color="rgb(92.904663%, 92.776489%, 92.808533%)" stop-opacity="1"/>
<stop offset="0.8125" stop-color="rgb(92.710876%, 92.578125%, 92.610168%)" stop-opacity="1"/>
<stop offset="0.875" stop-color="rgb(92.518616%, 92.382812%, 92.416382%)" stop-opacity="1"/>
<stop offset="0.9375" stop-color="rgb(92.324829%, 92.184448%, 92.219543%)" stop-opacity="1"/>
<stop offset="1" stop-color="rgb(92.127991%, 91.986084%, 92.021179%)" stop-opacity="1"/>
</linearGradient>
<clipPath id="clip-6">
<path clip-rule="nonzero" d="M 417 803 L 441 803 L 441 810 L 417 810 Z M 417 803 "/>
</clipPath>
<clipPath id="clip-7">
<path clip-rule="nonzero" d="M 417.839844 804.988281 C 420.875 806.308594 423.941406 807.71875 427.039062 809.21875 C 431.023438 807.039062 435.523438 805.230469 440.632812 803.988281 C 432.0625 803.71875 424.414062 804.171875 417.839844 804.988281 Z M 417.839844 804.988281 "/>
</clipPath>
<clipPath id="clip-8">
<path clip-rule="nonzero" d="M 417.839844 804.988281 C 420.875 806.308594 423.941406 807.71875 427.039062 809.21875 C 431.023438 807.039062 435.523438 805.230469 440.632812 803.988281 C 432.0625 803.71875 424.414062 804.171875 417.839844 804.988281 "/>
</clipPath>
<linearGradient id="linear-pattern-2" gradientUnits="userSpaceOnUse" x1="0.327548" y1="0" x2="0.353657" y2="0" gradientTransform="matrix(0.00000001, -210.656, 210.656, 0.00000001, 429.237, 878.22)">
<stop offset="0" stop-color="rgb(96.043396%, 95.97168%, 95.98999%)" stop-opacity="1"/>
<stop offset="0.5" stop-color="rgb(95.96405%, 95.890808%, 95.909119%)" stop-opacity="1"/>
<stop offset="1" stop-color="rgb(95.809937%, 95.733643%, 95.751953%)" stop-opacity="1"/>
</linearGradient>
<clipPath id="clip-9">
<path clip-rule="nonzero" d="M 461 817 L 541 817 L 541 852 L 461 852 Z M 461 817 "/>
</clipPath>
<clipPath id="clip-10">
<path clip-rule="nonzero" d="M 540.316406 837.410156 C 527.4375 829.28125 515.1875 823.058594 503.734375 818.308594 C 484.714844 815.628906 471.085938 821.140625 461.539062 828.808594 C 472.289062 835.75 483.152344 843.511719 493.953125 851.980469 C 503.773438 842.988281 519.242188 834.101562 540.316406 837.410156 Z M 540.316406 837.410156 "/>
</clipPath>
<clipPath id="clip-11">
<path clip-rule="nonzero" d="M 540.316406 837.410156 C 527.4375 829.28125 515.1875 823.058594 503.734375 818.308594 C 484.714844 815.628906 471.085938 821.140625 461.539062 828.808594 C 472.289062 835.75 483.152344 843.511719 493.953125 851.980469 C 503.773438 842.988281 519.242188 834.101562 540.316406 837.410156 "/>
</clipPath>
<linearGradient id="linear-pattern-3" gradientUnits="userSpaceOnUse" x1="0.124563" y1="0" x2="0.297119" y2="0" gradientTransform="matrix(0.00000001, -210.656, 210.656, 0.00000001, 500.928, 878.22)">
<stop offset="0" stop-color="rgb(98.497009%, 98.469543%, 98.477173%)" stop-opacity="1"/>
<stop offset="0.125" stop-color="rgb(98.36731%, 98.336792%, 98.344421%)" stop-opacity="1"/>
<stop offset="0.25" stop-color="rgb(98.104858%, 98.069763%, 98.078918%)" stop-opacity="1"/>
<stop offset="0.375" stop-color="rgb(97.845459%, 97.805786%, 97.816467%)" stop-opacity="1"/>
<stop offset="0.5" stop-color="rgb(97.584534%, 97.541809%, 97.55249%)" stop-opacity="1"/>
<stop offset="0.625" stop-color="rgb(97.323608%, 97.27478%, 97.286987%)" stop-opacity="1"/>
<stop offset="0.75" stop-color="rgb(97.064209%, 97.010803%, 97.02301%)" stop-opacity="1"/>
<stop offset="0.875" stop-color="rgb(96.801758%, 96.743774%, 96.757507%)" stop-opacity="1"/>
<stop offset="1" stop-color="rgb(96.542358%, 96.479797%, 96.495056%)" stop-opacity="1"/>
</linearGradient>
<clipPath id="clip-12">
<path clip-rule="nonzero" d="M 428 804 L 498 804 L 498 828 L 428 828 Z M 428 804 "/>
</clipPath>
<clipPath id="clip-13">
<path clip-rule="nonzero" d="M 497.609375 815.878906 C 481.933594 809.941406 467.886719 806.761719 455.984375 805.230469 C 453.546875 804.910156 451.164062 804.660156 448.839844 804.46875 C 441.058594 805.308594 434.484375 807.339844 428.953125 810.160156 C 439.113281 815.179688 449.566406 821.140625 460.140625 827.898438 C 468.964844 820.660156 481.152344 815.109375 497.609375 815.878906 Z M 497.609375 815.878906 "/>
</clipPath>
<clipPath id="clip-14">
<path clip-rule="nonzero" d="M 497.609375 815.878906 C 481.933594 809.941406 467.886719 806.761719 455.984375 805.230469 C 453.546875 804.910156 451.164062 804.660156 448.839844 804.46875 C 441.058594 805.308594 434.484375 807.339844 428.953125 810.160156 C 439.113281 815.179688 449.566406 821.140625 460.140625 827.898438 C 468.964844 820.660156 481.152344 815.109375 497.609375 815.878906 "/>
</clipPath>
<linearGradient id="linear-pattern-4" gradientUnits="userSpaceOnUse" x1="0.238872" y1="0" x2="0.350095" y2="0" gradientTransform="matrix(0.00000001, -210.657, 210.657, 0.00000001, 463.281, 878.22)">
<stop offset="0" stop-color="rgb(97.116089%, 97.064209%, 97.076416%)" stop-opacity="1"/>
<stop offset="0.25" stop-color="rgb(96.949768%, 96.893311%, 96.907043%)" stop-opacity="1"/>
<stop offset="0.5" stop-color="rgb(96.612549%, 96.549988%, 96.565247%)" stop-opacity="1"/>
<stop offset="0.75" stop-color="rgb(96.276855%, 96.208191%, 96.224976%)" stop-opacity="1"/>
<stop offset="1" stop-color="rgb(95.939636%, 95.866394%, 95.884705%)" stop-opacity="1"/>
</linearGradient>
<clipPath id="clip-15">
<path clip-rule="nonzero" d="M 717 784 L 796 784 L 796 852 L 717 852 Z M 717 784 "/>
</clipPath>
<clipPath id="clip-16">
<path clip-rule="nonzero" d="M 778.226562 803.050781 C 768.160156 800.171875 756.550781 796.390625 742.683594 791.890625 C 735.28125 789.480469 727.328125 786.890625 718.734375 784.160156 C 717.261719 808.988281 717.941406 831.609375 720.765625 851.980469 L 788.992188 851.980469 C 790.695312 846.289062 792.515625 840.699219 794.488281 835.261719 C 799.367188 821.800781 791.988281 806.988281 778.226562 803.050781 Z M 778.226562 803.050781 "/>
</clipPath>
<clipPath id="clip-17">
<path clip-rule="nonzero" d="M 778.226562 803.050781 C 768.160156 800.171875 756.550781 796.390625 742.683594 791.890625 C 735.28125 789.480469 727.328125 786.890625 718.734375 784.160156 C 717.261719 808.988281 717.941406 831.609375 720.765625 851.980469 L 788.992188 851.980469 C 790.695312 846.289062 792.515625 840.699219 794.488281 835.261719 C 799.367188 821.800781 791.988281 806.988281 778.226562 803.050781 "/>
</clipPath>
<linearGradient id="linear-pattern-5" gradientUnits="userSpaceOnUse" x1="0.124563" y1="0" x2="0.446508" y2="0" gradientTransform="matrix(0.00000001, -210.657, 210.657, 0.00000001, 756.987, 878.22)">
<stop offset="0" stop-color="rgb(98.497009%, 98.469543%, 98.477173%)" stop-opacity="1"/>
<stop offset="0.0625" stop-color="rgb(98.376465%, 98.345947%, 98.353577%)" stop-opacity="1"/>
<stop offset="0.125" stop-color="rgb(98.130798%, 98.097229%, 98.106384%)" stop-opacity="1"/>
<stop offset="0.1875" stop-color="rgb(97.889709%, 97.850037%, 97.860718%)" stop-opacity="1"/>
<stop offset="0.25" stop-color="rgb(97.647095%, 97.60437%, 97.615051%)" stop-opacity="1"/>
<stop offset="0.3125" stop-color="rgb(97.401428%, 97.354126%, 97.366333%)" stop-opacity="1"/>
<stop offset="0.375" stop-color="rgb(97.161865%, 97.109985%, 97.122192%)" stop-opacity="1"/>
<stop offset="0.4375" stop-color="rgb(96.917725%, 96.861267%, 96.875%)" stop-opacity="1"/>
<stop offset="0.5" stop-color="rgb(96.672058%, 96.612549%, 96.627808%)" stop-opacity="1"/>
<stop offset="0.5625" stop-color="rgb(96.432495%, 96.366882%, 96.383667%)" stop-opacity="1"/>
<stop offset="0.625" stop-color="rgb(96.188354%, 96.11969%, 96.136475%)" stop-opacity="1"/>
<stop offset="0.6875" stop-color="rgb(95.944214%, 95.869446%, 95.887756%)" stop-opacity="1"/>
<stop offset="0.75" stop-color="rgb(95.703125%, 95.623779%, 95.643616%)" stop-opacity="1"/>
<stop offset="0.8125" stop-color="rgb(95.457458%, 95.375061%, 95.394897%)" stop-opacity="1"/>
<stop offset="0.875" stop-color="rgb(95.21637%, 95.129395%, 95.150757%)" stop-opacity="1"/>
<stop offset="0.9375" stop-color="rgb(94.973755%, 94.882202%, 94.90509%)" stop-opacity="1"/>
<stop offset="1" stop-color="rgb(94.728088%, 94.631958%, 94.656372%)" stop-opacity="1"/>
</linearGradient>
<clipPath id="clip-18">
<path clip-rule="nonzero" d="M 385 734 L 719 734 L 719 852 L 385 852 Z M 385 734 "/>
</clipPath>
<clipPath id="clip-19">
<path clip-rule="nonzero" d="M 716.984375 783.601562 C 682.347656 772.578125 637.289062 759.089844 574.984375 744.351562 C 546.664062 737.648438 517.199219 734.25 487.398438 734.25 C 468.410156 734.25 450.296875 735.640625 433.355469 737.910156 C 431.957031 748.238281 428.222656 757.710938 422.125 766.199219 C 412.832031 779.128906 399.359375 788.089844 385.964844 794.261719 C 395.027344 796.269531 404.660156 799.441406 414.679688 803.628906 C 420.734375 802.75 427.757812 802.121094 435.691406 802.121094 C 441.960938 802.121094 448.785156 802.511719 456.085938 803.441406 C 483.117188 806.910156 521.046875 818.691406 564.1875 851.980469 L 718.964844 851.980469 C 716.136719 831.429688 715.476562 808.621094 716.984375 783.601562 Z M 716.984375 783.601562 "/>
</clipPath>
<clipPath id="clip-20">
<path clip-rule="nonzero" d="M 716.984375 783.601562 C 682.347656 772.578125 637.289062 759.089844 574.984375 744.351562 C 546.664062 737.648438 517.199219 734.25 487.398438 734.25 C 468.410156 734.25 450.296875 735.640625 433.355469 737.910156 C 431.957031 748.238281 428.222656 757.710938 422.125 766.199219 C 412.832031 779.128906 399.359375 788.089844 385.964844 794.261719 C 395.027344 796.269531 404.660156 799.441406 414.679688 803.628906 C 420.734375 802.75 427.757812 802.121094 435.691406 802.121094 C 441.960938 802.121094 448.785156 802.511719 456.085938 803.441406 C 483.117188 806.910156 521.046875 818.691406 564.1875 851.980469 L 718.964844 851.980469 C 716.136719 831.429688 715.476562 808.621094 716.984375 783.601562 "/>
</clipPath>
<linearGradient id="linear-pattern-6" gradientUnits="userSpaceOnUse" x1="0.124563" y1="0" x2="0.683433" y2="0" gradientTransform="matrix(0.00000001, -210.657, 210.657, 0.00000001, 552.464, 878.22)">
<stop offset="0" stop-color="rgb(98.497009%, 98.469543%, 98.477173%)" stop-opacity="1"/>
<stop offset="0.03125" stop-color="rgb(98.391724%, 98.362732%, 98.370361%)" stop-opacity="1"/>
<stop offset="0.0625" stop-color="rgb(98.178101%, 98.146057%, 98.153687%)" stop-opacity="1"/>
<stop offset="0.09375" stop-color="rgb(97.967529%, 97.930908%, 97.940063%)" stop-opacity="1"/>
<stop offset="0.125" stop-color="rgb(97.758484%, 97.717285%, 97.727966%)" stop-opacity="1"/>
<stop offset="0.15625" stop-color="rgb(97.547913%, 97.503662%, 97.514343%)" stop-opacity="1"/>
<stop offset="0.1875" stop-color="rgb(97.33429%, 97.286987%, 97.299194%)" stop-opacity="1"/>
<stop offset="0.21875" stop-color="rgb(97.125244%, 97.073364%, 97.085571%)" stop-opacity="1"/>
<stop offset="0.25" stop-color="rgb(96.914673%, 96.858215%, 96.873474%)" stop-opacity="1"/>
<stop offset="0.28125" stop-color="rgb(96.702576%, 96.643066%, 96.658325%)" stop-opacity="1"/>
<stop offset="0.3125" stop-color="rgb(96.492004%, 96.427917%, 96.444702%)" stop-opacity="1"/>
<stop offset="0.34375" stop-color="rgb(96.281433%, 96.214294%, 96.231079%)" stop-opacity="1"/>
<stop offset="0.375" stop-color="rgb(96.069336%, 95.99762%, 96.01593%)" stop-opacity="1"/>
<stop offset="0.40625" stop-color="rgb(95.860291%, 95.785522%, 95.803833%)" stop-opacity="1"/>
<stop offset="0.4375" stop-color="rgb(95.649719%, 95.570374%, 95.59021%)" stop-opacity="1"/>
<stop offset="0.46875" stop-color="rgb(95.436096%, 95.353699%, 95.373535%)" stop-opacity="1"/>
<stop offset="0.5" stop-color="rgb(95.227051%, 95.140076%, 95.161438%)" stop-opacity="1"/>
<stop offset="0.53125" stop-color="rgb(95.016479%, 94.926453%, 94.949341%)" stop-opacity="1"/>
<stop offset="0.5625" stop-color="rgb(94.804382%, 94.709778%, 94.734192%)" stop-opacity="1"/>
<stop offset="0.59375" stop-color="rgb(94.592285%, 94.494629%, 94.519043%)" stop-opacity="1"/>
<stop offset="0.625" stop-color="rgb(94.38324%, 94.281006%, 94.306946%)" stop-opacity="1"/>
<stop offset="0.65625" stop-color="rgb(94.172668%, 94.067383%, 94.093323%)" stop-opacity="1"/>
<stop offset="0.6875" stop-color="rgb(93.960571%, 93.850708%, 93.878174%)" stop-opacity="1"/>
<stop offset="0.71875" stop-color="rgb(93.75%, 93.637085%, 93.664551%)" stop-opacity="1"/>
<stop offset="0.75" stop-color="rgb(93.539429%, 93.421936%, 93.450928%)" stop-opacity="1"/>
<stop offset="0.78125" stop-color="rgb(93.327332%, 93.206787%, 93.237305%)" stop-opacity="1"/>
<stop offset="0.8125" stop-color="rgb(93.118286%, 92.993164%, 93.023682%)" stop-opacity="1"/>
<stop offset="0.84375" stop-color="rgb(92.906189%, 92.778015%, 92.810059%)" stop-opacity="1"/>
<stop offset="0.875" stop-color="rgb(92.694092%, 92.56134%, 92.59491%)" stop-opacity="1"/>
<stop offset="0.90625" stop-color="rgb(92.485046%, 92.349243%, 92.382812%)" stop-opacity="1"/>
<stop offset="0.9375" stop-color="rgb(92.274475%, 92.134094%, 92.169189%)" stop-opacity="1"/>
<stop offset="0.96875" stop-color="rgb(92.060852%, 91.917419%, 91.952515%)" stop-opacity="1"/>
<stop offset="1" stop-color="rgb(91.850281%, 91.702271%, 91.738892%)" stop-opacity="1"/>
</linearGradient>
<clipPath id="clip-21">
<path clip-rule="nonzero" d="M 496 838 L 562 838 L 562 852 L 496 852 Z M 496 838 "/>
</clipPath>
<clipPath id="clip-22">
<path clip-rule="nonzero" d="M 496.378906 851.980469 L 561.269531 851.980469 C 555.550781 847.628906 549.925781 843.660156 544.410156 840.039062 C 522.460938 834.820312 506.539062 843.039062 496.378906 851.980469 Z M 496.378906 851.980469 "/>
</clipPath>
<clipPath id="clip-23">
<path clip-rule="nonzero" d="M 496.378906 851.980469 L 561.269531 851.980469 C 555.550781 847.628906 549.925781 843.660156 544.410156 840.039062 C 522.460938 834.820312 506.539062 843.039062 496.378906 851.980469 "/>
</clipPath>
<linearGradient id="linear-pattern-7" gradientUnits="userSpaceOnUse" x1="0.124563" y1="0" x2="0.206022" y2="0" gradientTransform="matrix(0.00000001, -210.657, 210.657, 0.00000001, 528.825, 878.22)">
<stop offset="0" stop-color="rgb(98.497009%, 98.469543%, 98.477173%)" stop-opacity="1"/>
<stop offset="0.25" stop-color="rgb(98.374939%, 98.345947%, 98.352051%)" stop-opacity="1"/>
<stop offset="0.5" stop-color="rgb(98.127747%, 98.092651%, 98.101807%)" stop-opacity="1"/>
<stop offset="0.75" stop-color="rgb(97.88208%, 97.843933%, 97.853088%)" stop-opacity="1"/>
<stop offset="1" stop-color="rgb(97.636414%, 97.593689%, 97.60437%)" stop-opacity="1"/>
</linearGradient>
</defs>

<path fill-rule="nonzero" fill="rgb(44.477844%, 48.860168%, 34.346008%)" fill-opacity="1" d="M 550.972656 639.128906 C 550.785156 639.160156 550.597656 639.171875 550.414062 639.171875 C 548.199219 639.171875 546.277344 637.519531 545.996094 635.261719 C 545.6875 632.820312 547.421875 630.589844 549.867188 630.28125 C 551.296875 630.101562 677.199219 613.710938 808.121094 551.910156 C 814.070312 549.101562 818.285156 543.558594 819.34375 537.058594 C 819.34375 534.308594 817.128906 532.058594 814.375 532.058594 C 783.410156 531.988281 728.523438 561.410156 579.09375 596.769531 C 465.285156 623.710938 365.578125 592.980469 318.859375 573.769531 C 304.316406 567.789062 287.660156 574.898438 282.804688 589.851562 C 278.648438 602.660156 284.703125 616.371094 296.710938 622.128906 C 511.726562 725.230469 784.554688 596.578125 808.601562 584.828125 C 809.707031 584.289062 810.5625 583.371094 811.023438 582.21875 C 811.824219 580.238281 813.90625 568.941406 815.789062 558.140625 C 682.097656 622.101562 552.433594 638.949219 550.972656 639.128906 "/>
<path fill-rule="nonzero" fill="rgb(78.929138%, 87.808228%, 61.244202%)" fill-opacity="1" d="M 414.898438 562.789062 C 412.019531 558.78125 408.648438 555.191406 404.957031 551.96875 C 386.535156 535.910156 361.195312 530.429688 337.394531 535.980469 C 324.316406 539.03125 310.628906 544.390625 304.550781 553.808594 C 304.550781 553.808594 304.546875 553.859375 304.539062 553.960938 C 304.539062 553.960938 380.648438 577.761719 424.089844 584.519531 C 422.648438 576.609375 419.59375 569.339844 414.898438 562.789062 "/>
<path fill-rule="nonzero" fill="rgb(78.929138%, 87.808228%, 61.244202%)" fill-opacity="1" d="M 608.335938 345.621094 C 601.109375 357.320312 593.132812 368.839844 584.570312 380.070312 C 590.941406 383.140625 615.484375 393.171875 638.675781 378.960938 C 642.4375 367.269531 644.425781 355.148438 644.617188 343.011719 C 629.90625 348.769531 615.257812 347.019531 608.335938 345.621094 "/>
<path fill-rule="nonzero" fill="rgb(78.929138%, 87.808228%, 61.244202%)" fill-opacity="1" d="M 583.421875 381.570312 C 575.175781 392.300781 566.40625 402.75 557.25 412.820312 C 565.269531 418.480469 591.085938 433.558594 618.828125 416.648438 C 627.230469 405.75 633.570312 393.839844 637.859375 381.398438 C 614.128906 394.511719 589.261719 384.328125 583.421875 381.570312 "/>
<path fill-rule="nonzero" fill="rgb(78.929138%, 87.808228%, 61.244202%)" fill-opacity="1" d="M 581.945312 454.699219 C 591.867188 445.839844 602.007812 435.839844 612.3125 424.488281 C 613.550781 423.121094 614.742188 421.71875 615.910156 420.320312 C 588.800781 433.980469 563.757812 419.519531 556.007812 414.179688 C 546.796875 424.230469 537.21875 433.898438 527.414062 443.070312 C 537.054688 451.390625 556.710938 463.660156 581.945312 454.699219 "/>
<path fill-rule="nonzero" fill="rgb(78.929138%, 87.808228%, 61.244202%)" fill-opacity="1" d="M 609.339844 343.980469 C 616.398438 345.441406 630.519531 347.070312 644.613281 341.269531 C 644.644531 324.808594 641.40625 308.339844 634.933594 292.878906 C 628.296875 310.03125 619.605469 327.179688 609.339844 343.980469 "/>
<path fill-rule="nonzero" fill="rgb(78.929138%, 87.808228%, 61.244202%)" fill-opacity="1" d="M 440.636719 519.769531 C 435.523438 518.53125 431.023438 516.730469 427.042969 514.539062 C 423.941406 516.039062 420.878906 517.449219 417.839844 518.769531 C 424.414062 519.589844 432.066406 520.039062 440.636719 519.769531 "/>
<path fill-rule="nonzero" fill="rgb(78.929138%, 87.808228%, 61.244202%)" fill-opacity="1" d="M 526.148438 444.261719 C 516.019531 453.660156 505.660156 462.539062 495.234375 470.769531 C 505.324219 480.078125 521.628906 489.140625 544.410156 483.71875 C 555.449219 476.480469 566.925781 467.828125 578.734375 457.539062 C 554.65625 464.109375 535.65625 452.28125 526.148438 444.261719 "/>
<path fill-rule="nonzero" fill="rgb(78.929138%, 87.808228%, 61.244202%)" fill-opacity="1" d="M 493.953125 471.78125 C 483.152344 480.25 472.289062 488.011719 461.539062 494.960938 C 471.085938 502.621094 484.714844 508.128906 503.734375 505.460938 C 515.1875 500.710938 527.4375 494.480469 540.316406 486.351562 C 519.242188 489.671875 503.773438 480.769531 493.953125 471.78125 "/>
<path fill-rule="nonzero" fill="rgb(78.929138%, 87.808228%, 61.244202%)" fill-opacity="1" d="M 497.609375 507.878906 C 481.152344 508.648438 468.964844 503.101562 460.140625 495.859375 C 449.566406 502.621094 439.113281 508.578125 428.953125 513.609375 C 434.488281 516.421875 441.058594 518.449219 448.839844 519.289062 C 451.164062 519.101562 453.546875 518.851562 455.984375 518.53125 C 467.886719 517 481.933594 513.820312 497.609375 507.878906 "/>
<path fill-rule="nonzero" fill="rgb(78.929138%, 87.808228%, 61.244202%)" fill-opacity="1" d="M 758.757812 379.230469 C 762.59375 375.171875 766.527344 371.609375 770.480469 368.441406 C 767.640625 336.980469 767.046875 308.75 767.089844 289.871094 C 767.132812 270.070312 744.800781 258.121094 728.585938 269.480469 C 728.265625 269.710938 727.949219 269.941406 727.632812 270.160156 C 719.398438 276.128906 708.300781 276.710938 699.679688 271.320312 C 682.878906 260.808594 668.210938 260.488281 657.996094 262.609375 C 649.460938 264.378906 642.527344 270.679688 639.867188 278.980469 C 638.628906 282.851562 637.265625 286.730469 635.808594 290.609375 C 642.050781 305.058594 645.605469 320.679688 646.152344 336.808594 C 647.265625 369.800781 635.71875 401.359375 613.632812 425.679688 C 550.414062 495.320312 493.0625 515.578125 456.085938 520.320312 C 448.785156 521.261719 441.960938 521.640625 435.691406 521.640625 C 427.757812 521.640625 420.734375 521.011719 414.679688 520.128906 C 404.664062 524.320312 395.027344 527.488281 385.964844 529.511719 C 399.359375 535.671875 412.832031 544.628906 422.125 557.558594 C 428.226562 566.050781 431.957031 575.519531 433.355469 585.859375 C 450.296875 588.121094 468.410156 589.511719 487.398438 589.511719 C 517.199219 589.511719 546.664062 586.109375 574.984375 579.410156 C 637.289062 564.671875 682.347656 551.179688 716.984375 540.160156 C 712.59375 467.328125 726.59375 413.269531 758.757812 379.230469 "/>
<path fill-rule="nonzero" fill="rgb(78.929138%, 87.808228%, 61.244202%)" fill-opacity="1" d="M 770.679688 370.570312 C 766.9375 373.628906 763.21875 377.070312 759.585938 380.960938 C 728.171875 414.589844 714.476562 467.878906 718.734375 539.609375 C 727.328125 536.871094 735.28125 534.28125 742.6875 531.871094 C 756.550781 527.371094 768.160156 523.601562 778.226562 520.710938 C 791.992188 516.769531 799.371094 501.960938 794.488281 488.511719 C 781.210938 451.910156 774.257812 408.960938 770.679688 370.570312 "/>
<g clip-path="url(#clip-0)">
<g clip-path="url(#clip-1)">
<g clip-path="url(#clip-2)">
<path fill-rule="nonzero" fill="url(#linear-pattern-0)" d="M 278.644531 791.769531 L 819.34375 791.769531 L 819.34375 598.539062 L 278.644531 598.539062 Z M 278.644531 791.769531 "/>
</g>
</g>
</g>
<g clip-path="url(#clip-3)">
<g clip-path="url(#clip-4)">
<g clip-path="url(#clip-5)">
<path fill-rule="nonzero" fill="url(#linear-pattern-1)" d="M 304.539062 793.328125 L 424.089844 793.328125 L 424.089844 739.238281 L 304.539062 739.238281 Z M 304.539062 793.328125 "/>
</g>
</g>
</g>
<g clip-path="url(#clip-6)">
<g clip-path="url(#clip-7)">
<g clip-path="url(#clip-8)">
<path fill-rule="nonzero" fill="url(#linear-pattern-2)" d="M 417.839844 809.21875 L 440.632812 809.21875 L 440.632812 803.71875 L 417.839844 803.71875 Z M 417.839844 809.21875 "/>
</g>
</g>
</g>
<g clip-path="url(#clip-9)">
<g clip-path="url(#clip-10)">
<g clip-path="url(#clip-11)">
<path fill-rule="nonzero" fill="url(#linear-pattern-3)" d="M 461.539062 851.980469 L 540.316406 851.980469 L 540.316406 815.628906 L 461.539062 815.628906 Z M 461.539062 851.980469 "/>
</g>
</g>
</g>
<g clip-path="url(#clip-12)">
<g clip-path="url(#clip-13)">
<g clip-path="url(#clip-14)">
<path fill-rule="nonzero" fill="url(#linear-pattern-4)" d="M 428.953125 827.898438 L 497.609375 827.898438 L 497.609375 804.46875 L 428.953125 804.46875 Z M 428.953125 827.898438 "/>
</g>
</g>
</g>
<g clip-path="url(#clip-15)">
<g clip-path="url(#clip-16)">
<g clip-path="url(#clip-17)">
<path fill-rule="nonzero" fill="url(#linear-pattern-5)" d="M 717.261719 851.980469 L 799.367188 851.980469 L 799.367188 784.160156 L 717.261719 784.160156 Z M 717.261719 851.980469 "/>
</g>
</g>
</g>
<g clip-path="url(#clip-18)">
<g clip-path="url(#clip-19)">
<g clip-path="url(#clip-20)">
<path fill-rule="nonzero" fill="url(#linear-pattern-6)" d="M 385.964844 851.980469 L 718.964844 851.980469 L 718.964844 734.25 L 385.964844 734.25 Z M 385.964844 851.980469 "/>
</g>
</g>
</g>
<g clip-path="url(#clip-21)">
<g clip-path="url(#clip-22)">
<g clip-path="url(#clip-23)">
<path fill-rule="nonzero" fill="url(#linear-pattern-7)" d="M 496.378906 851.980469 L 561.269531 851.980469 L 561.269531 834.820312 L 496.378906 834.820312 Z M 496.378906 851.980469 "/>
</g>
</g>
</g>
<path fill-rule="nonzero" fill="rgb(68.527222%, 75.184631%, 32.519531%)" fill-opacity="1" d="M 1633.519531 382.058594 C 1629.949219 382.5 1627.058594 383.25 1624.738281 384.160156 C 1623.050781 384.828125 1621.148438 383.910156 1620.539062 382.191406 C 1619.511719 379.28125 1619.070312 376.488281 1619.890625 374.699219 C 1620.96875 372.328125 1624.921875 371.488281 1628.050781 371.210938 C 1628.671875 371.160156 1629.480469 371.109375 1630.359375 371.109375 C 1633.640625 371.109375 1638.011719 371.800781 1638.390625 375.398438 C 1638.691406 378.171875 1636.621094 381.679688 1633.519531 382.058594 Z M 1628.539062 564.691406 C 1603.828125 518.851562 1621.109375 428.089844 1628.050781 397.21875 C 1628.101562 397 1628.140625 396.769531 1628.171875 396.550781 C 1628.359375 395.261719 1629.21875 394.148438 1630.46875 393.800781 C 1631.648438 393.46875 1633.089844 393.171875 1634.859375 392.960938 C 1643.648438 391.878906 1650.269531 383.308594 1649.308594 374.238281 C 1648.53125 366.949219 1642.238281 358.921875 1627.058594 360.28125 C 1618.289062 361.070312 1612.519531 364.390625 1609.898438 370.160156 C 1608.019531 374.28125 1608.261719 378.890625 1609.371094 383.140625 C 1609.839844 384.960938 1608.621094 386.789062 1606.769531 387.121094 C 1599.839844 388.351562 1591.011719 390.410156 1579.789062 393.75 C 1537.539062 406.320312 1557.949219 368.441406 1510.738281 378.179688 C 1397.109375 401.609375 1462.628906 424.390625 1401.300781 522.351562 C 1345.960938 610.738281 1230.109375 549.058594 1169.421875 620.320312 C 1164.210938 626.441406 1160.011719 632.679688 1166.589844 637.28125 C 1196.609375 658.308594 1275.96875 697.710938 1433.578125 679.839844 C 1547.199219 666.949219 1579.519531 630.46875 1639.238281 638.46875 C 1644.96875 639.238281 1650.070312 634.769531 1650.039062 628.988281 C 1649.980469 617.878906 1646.261719 597.589844 1628.539062 564.691406 "/>
<path fill-rule="nonzero" fill="rgb(68.527222%, 75.184631%, 32.519531%)" fill-opacity="1" d="M 1357.21875 695.339844 C 1381.808594 695.339844 1407.910156 693.789062 1434.808594 690.738281 C 1490.96875 684.371094 1527.710938 672.339844 1557.238281 662.671875 C 1581.71875 654.648438 1601.070312 648.308594 1622.5 648.308594 C 1627.558594 648.308594 1632.550781 648.648438 1637.75 649.339844 C 1638.660156 649.46875 1639.589844 649.53125 1640.5 649.53125 C 1644.539062 649.53125 1648.390625 648.359375 1651.691406 646.210938 C 1651.71875 646.480469 1651.761719 646.761719 1651.800781 647.03125 C 1655.199219 672.949219 1635.71875 696.238281 1609.628906 697.71875 C 1596.640625 698.449219 1581.890625 699.398438 1568.871094 700.488281 C 1557.878906 701.410156 1547 696.898438 1540.269531 688.171875 C 1535.429688 681.898438 1526.628906 690.421875 1494.011719 697.179688 C 1254.019531 746.941406 1162.519531 682.550781 1160.859375 646.660156 C 1187.308594 665.03125 1247.601562 695.339844 1357.21875 695.339844 "/>
<path fill-rule="nonzero" fill="rgb(78.929138%, 87.808228%, 61.244202%)" fill-opacity="1" d="M 1210.789062 694.730469 C 1176.890625 680.328125 1161.53125 661.171875 1160.859375 646.660156 C 1180.878906 660.558594 1220.289062 681.300781 1285.800781 690.570312 L 1213.929688 661.558594 C 1192 653.289062 1176.558594 644.269531 1166.589844 637.28125 C 1160.011719 632.679688 1164.210938 626.441406 1169.421875 620.320312 C 1230.109375 549.058594 1345.960938 610.738281 1401.300781 522.351562 C 1462.628906 424.390625 1397.109375 401.609375 1510.738281 378.179688 C 1523.5 375.539062 1531.320312 376.390625 1536.769531 378.78125 L 1576.238281 394.71875 C 1577.371094 394.429688 1578.550781 394.109375 1579.789062 393.75 C 1591.011719 390.410156 1599.839844 388.351562 1606.769531 387.121094 C 1608.621094 386.789062 1609.839844 384.960938 1609.371094 383.140625 C 1608.261719 378.890625 1608.019531 374.28125 1609.898438 370.160156 C 1612.519531 364.390625 1618.289062 361.070312 1627.058594 360.28125 C 1632.171875 359.820312 1636.261719 360.429688 1639.480469 361.710938 L 1639.519531 361.699219 L 1719.53125 394 C 1663.679688 299.128906 1560.511719 235.46875 1442.460938 235.46875 C 1265.011719 235.46875 1121.160156 379.320312 1121.160156 556.769531 C 1121.160156 734.21875 1265.011719 878.078125 1442.460938 878.078125 C 1493.171875 878.078125 1541.140625 866.320312 1583.789062 845.398438 L 1210.808594 694.828125 L 1210.789062 694.730469 "/>
<path fill-rule="nonzero" fill="rgb(44.477844%, 48.860168%, 34.346008%)" fill-opacity="1" d="M 1630.359375 371.109375 C 1629.480469 371.109375 1628.671875 371.160156 1628.050781 371.210938 C 1624.921875 371.488281 1620.96875 372.328125 1619.890625 374.699219 C 1619.070312 376.488281 1619.511719 379.28125 1620.539062 382.191406 C 1621.148438 383.910156 1623.050781 384.828125 1624.738281 384.160156 C 1627.058594 383.25 1629.949219 382.5 1633.519531 382.058594 C 1636.621094 381.679688 1638.691406 378.171875 1638.390625 375.398438 C 1638.011719 371.800781 1633.640625 371.109375 1630.359375 371.109375 "/>
<path fill-rule="nonzero" fill="rgb(44.477844%, 48.860168%, 34.346008%)" fill-opacity="1" d="M 1719.53125 394 L 1639.519531 361.699219 L 1639.480469 361.710938 C 1645.839844 364.238281 1648.789062 369.398438 1649.308594 374.238281 C 1650.269531 383.308594 1643.648438 391.878906 1634.859375 392.960938 C 1633.089844 393.171875 1631.648438 393.46875 1630.46875 393.800781 C 1629.21875 394.148438 1628.359375 395.261719 1628.171875 396.550781 C 1628.140625 396.769531 1628.101562 397 1628.050781 397.21875 C 1621.109375 428.089844 1603.828125 518.851562 1628.539062 564.691406 C 1646.261719 597.589844 1649.980469 617.878906 1650.039062 628.988281 C 1650.070312 634.769531 1644.96875 639.238281 1639.238281 638.46875 C 1579.519531 630.46875 1547.199219 666.949219 1433.578125 679.839844 C 1328.351562 691.769531 1258.011719 678.171875 1213.929688 661.558594 L 1285.800781 690.570312 C 1306.839844 693.539062 1330.570312 695.339844 1357.21875 695.339844 C 1381.808594 695.339844 1407.910156 693.789062 1434.808594 690.738281 C 1490.96875 684.371094 1527.710938 672.339844 1557.238281 662.671875 C 1581.71875 654.648438 1601.070312 648.308594 1622.5 648.308594 C 1627.558594 648.308594 1632.550781 648.648438 1637.75 649.339844 C 1638.660156 649.46875 1639.589844 649.53125 1640.5 649.53125 C 1644.539062 649.53125 1648.390625 648.359375 1651.691406 646.210938 C 1651.71875 646.480469 1651.761719 646.761719 1651.800781 647.03125 C 1655.199219 672.949219 1635.71875 696.238281 1609.628906 697.71875 C 1596.640625 698.449219 1581.890625 699.398438 1568.871094 700.488281 C 1557.878906 701.410156 1547 696.898438 1540.269531 688.171875 C 1535.429688 681.898438 1526.628906 690.421875 1494.011719 697.179688 C 1351.03125 726.820312 1260.769531 715.949219 1210.789062 694.730469 L 1210.808594 694.828125 L 1583.789062 845.398438 C 1690.378906 793.109375 1763.761719 683.511719 1763.761719 556.769531 C 1763.761719 497.371094 1747.640625 441.730469 1719.53125 394 "/>
<path fill-rule="nonzero" fill="rgb(44.477844%, 48.860168%, 34.346008%)" fill-opacity="1" d="M 1576.238281 394.71875 L 1536.769531 378.78125 C 1550.898438 384.96875 1549.140625 401.511719 1576.238281 394.71875 "/>
<path fill-rule="nonzero" fill="rgb(78.929138%, 87.808228%, 61.244202%)" fill-opacity="1" d="M 864.601562 1443.039062 C 864.601562 1269.519531 723.9375 1128.859375 550.421875 1128.859375 C 376.902344 1128.859375 236.238281 1269.519531 236.238281 1443.039062 C 236.238281 1616.558594 376.902344 1757.230469 550.421875 1757.230469 C 629.207031 1757.230469 701.222656 1728.21875 756.367188 1680.308594 L 417.699219 1506.121094 C 416.679688 1505.699219 415.667969 1505.230469 414.691406 1504.640625 L 357.609375 1470.339844 C 350.714844 1466.199219 346.605469 1458.640625 346.929688 1450.609375 C 347.554688 1434.960938 352.25 1408.171875 373.984375 1382.941406 L 373.984375 1382.929688 L 373.988281 1382.929688 C 373.996094 1382.921875 374.003906 1382.910156 374.011719 1382.898438 C 374.015625 1382.921875 374.023438 1382.929688 374.027344 1382.949219 L 394.503906 1393.480469 C 386.289062 1387.03125 382.570312 1376.089844 385.636719 1365.730469 C 391.09375 1347.269531 403.863281 1320.949219 433.710938 1299.820312 C 442.539062 1293.570312 453.21875 1293.761719 461.492188 1298.25 L 560.324219 1349.078125 C 566.882812 1346.601562 573.796875 1343.308594 581.058594 1339.058594 C 589.160156 1334.320312 598.628906 1334.410156 606.253906 1338.261719 L 606.378906 1338.210938 L 863.402344 1470.398438 C 864.183594 1461.378906 864.601562 1452.261719 864.601562 1443.039062 "/>
<path fill-rule="nonzero" fill="rgb(44.477844%, 48.860168%, 34.346008%)" fill-opacity="1" d="M 623.769531 1431.710938 C 627.476562 1432.550781 631.160156 1430.230469 632.003906 1426.519531 C 632.847656 1422.808594 630.523438 1419.128906 626.816406 1418.289062 C 623.109375 1417.441406 619.421875 1419.769531 618.578125 1423.46875 C 617.738281 1427.179688 620.058594 1430.871094 623.769531 1431.710938 "/>
<path fill-rule="nonzero" fill="rgb(44.477844%, 48.860168%, 34.346008%)" fill-opacity="1" d="M 485.832031 1342.679688 C 499.636719 1352.25 524.757812 1362.550781 560.324219 1349.078125 L 461.492188 1298.25 C 469.15625 1302.421875 474.757812 1310.28125 474.828125 1320.300781 C 474.832031 1320.539062 474.828125 1320.78125 474.828125 1321.019531 C 474.746094 1329.621094 478.769531 1337.78125 485.832031 1342.679688 "/>
<path fill-rule="nonzero" fill="rgb(44.477844%, 48.860168%, 34.346008%)" fill-opacity="1" d="M 615.296875 1376.269531 C 611.9375 1374.5 607.773438 1375.789062 606 1379.148438 C 604.226562 1382.511719 605.515625 1386.679688 608.878906 1388.449219 C 612.242188 1390.21875 616.40625 1388.929688 618.179688 1385.570312 C 619.949219 1382.210938 618.660156 1378.050781 615.296875 1376.269531 "/>
<path fill-rule="nonzero" fill="rgb(44.477844%, 48.860168%, 34.346008%)" fill-opacity="1" d="M 655.960938 1462.5 C 655.8125 1458.699219 652.613281 1455.738281 648.816406 1455.878906 C 645.015625 1456.03125 642.054688 1459.230469 642.203125 1463.03125 C 642.347656 1466.828125 645.546875 1469.789062 649.34375 1469.640625 C 653.144531 1469.5 656.105469 1466.300781 655.960938 1462.5 "/>
<path fill-rule="nonzero" fill="rgb(44.477844%, 48.860168%, 34.346008%)" fill-opacity="1" d="M 606.378906 1338.210938 L 606.253906 1338.261719 C 611.859375 1341.089844 616.476562 1345.941406 618.789062 1352.441406 C 621.105469 1358.941406 623.144531 1367.160156 624.59375 1377.519531 C 631.332031 1425.828125 688.390625 1513.480469 744.328125 1552.550781 C 800.265625 1591.628906 595.828125 1591.828125 540.363281 1510.601562 C 499.042969 1450.078125 431.140625 1411.949219 399.203125 1396.449219 C 397.5 1395.621094 395.941406 1394.609375 394.503906 1393.480469 L 374.027344 1382.949219 C 376.515625 1392.140625 382.4375 1400.320312 391.042969 1405.5 C 392.007812 1406.078125 393.011719 1406.621094 394.023438 1407.109375 C 405.449219 1412.660156 416.949219 1418.898438 428.199219 1425.660156 C 459.003906 1444.179688 501.769531 1475.101562 530.574219 1517.289062 C 540.027344 1531.140625 553.722656 1543.511719 571.269531 1554.050781 C 571.277344 1554.058594 571.28125 1554.058594 571.285156 1554.058594 C 600.742188 1571.761719 641.609375 1584.328125 683.402344 1588.53125 C 691.019531 1589.300781 702.710938 1590.148438 714.902344 1589.871094 C 663.976562 1595.550781 570.445312 1582.609375 532.644531 1534.320312 C 517.363281 1514.800781 499.207031 1498.03125 480.605469 1483.871094 C 468.988281 1475.03125 452.132812 1479.738281 446.761719 1493.308594 C 446.6875 1493.5 446.613281 1493.679688 446.539062 1493.871094 C 441.984375 1505.480469 428.84375 1510.710938 417.699219 1506.121094 L 756.367188 1680.308594 C 816.222656 1628.308594 856.1875 1554.039062 863.402344 1470.398438 L 606.378906 1338.210938 "/>
<path fill-rule="nonzero" fill="rgb(44.477844%, 48.860168%, 34.346008%)" fill-opacity="1" d="M 373.988281 1382.929688 L 373.984375 1382.929688 L 373.984375 1382.941406 C 373.984375 1382.929688 373.988281 1382.929688 373.988281 1382.929688 "/>
<path fill-rule="nonzero" fill="rgb(78.929138%, 87.808228%, 61.244202%)" fill-opacity="1" d="M 1395.179688 1487.300781 C 1393.941406 1487.539062 1392.359375 1488.511719 1392 1490.410156 L 1391.921875 1490.828125 C 1391.53125 1492.96875 1390.871094 1495 1389.980469 1496.898438 L 1431.488281 1509.070312 C 1421.75 1501.171875 1410.390625 1493.96875 1397.648438 1487.648438 C 1396.851562 1487.25 1396.019531 1487.140625 1395.179688 1487.300781 "/>
<path fill-rule="nonzero" fill="rgb(78.929138%, 87.808228%, 61.244202%)" fill-opacity="1" d="M 1358.609375 1509.769531 L 1317.378906 1494.660156 C 1308.75 1491.5 1302.550781 1483.921875 1301.179688 1474.871094 C 1299.609375 1464.488281 1298.828125 1444.058594 1310.691406 1422.378906 L 1310.78125 1421.941406 L 1315.46875 1414.941406 C 1315.480469 1414.121094 1315.53125 1413.300781 1315.609375 1412.46875 C 1317 1398.21875 1322.609375 1377.121094 1341.429688 1357.519531 C 1345.449219 1353.328125 1350.550781 1350.539062 1356.191406 1349.449219 C 1360.730469 1348.578125 1365.480469 1348.851562 1369.921875 1350.238281 L 1435.449219 1369.441406 C 1437.761719 1367.800781 1440.089844 1365.960938 1442.390625 1363.941406 C 1446.128906 1360.660156 1450.671875 1358.441406 1455.53125 1357.511719 C 1458.050781 1357.019531 1460.628906 1356.890625 1463.179688 1357.109375 L 1463.859375 1356.648438 L 1635.738281 1407.011719 C 1635.671875 1406.640625 1635.601562 1406.28125 1635.53125 1405.910156 C 1615.058594 1299.449219 1511.789062 1229.5 1405.339844 1249.980469 C 1298.878906 1270.449219 1228.929688 1373.71875 1249.398438 1480.171875 C 1269.871094 1586.628906 1373.140625 1656.578125 1479.601562 1636.109375 C 1520.898438 1628.171875 1558.410156 1607.238281 1586.75 1576.601562 L 1361.789062 1510.679688 C 1360.621094 1510.421875 1359.601562 1510.128906 1358.609375 1509.769531 "/>
<path fill-rule="nonzero" fill="rgb(68.527222%, 75.184631%, 32.519531%)" fill-opacity="1" d="M 1567.261719 1517.640625 C 1559.398438 1519.339844 1551.730469 1520.238281 1546.699219 1520.691406 C 1519.109375 1523.179688 1491.089844 1520.128906 1469.808594 1512.339844 C 1469.800781 1512.339844 1469.800781 1512.328125 1469.789062 1512.328125 C 1457.121094 1507.691406 1446.710938 1501.378906 1438.859375 1493.589844 C 1414.960938 1469.859375 1383.410156 1455.160156 1361.160156 1447.011719 C 1353.03125 1444.03125 1344.808594 1441.421875 1336.71875 1439.25 C 1336 1439.058594 1335.28125 1438.828125 1334.589844 1438.578125 C 1328.371094 1436.300781 1323.519531 1431.738281 1320.761719 1426.101562 C 1320.75 1426.089844 1320.75 1426.078125 1320.738281 1426.070312 C 1320.738281 1426.070312 1320.738281 1426.078125 1320.730469 1426.089844 C 1309.800781 1445.140625 1310.101562 1463.070312 1311.640625 1473.289062 C 1312.429688 1478.53125 1316.03125 1482.910156 1321.011719 1484.730469 L 1362.25 1499.839844 C 1362.949219 1500.101562 1363.671875 1500.28125 1364.378906 1500.421875 C 1372.171875 1502.011719 1380.019531 1496.980469 1381.53125 1488.890625 C 1381.550781 1488.761719 1381.578125 1488.628906 1381.601562 1488.5 C 1383.390625 1479.050781 1393.71875 1473.898438 1402.339844 1478.179688 C 1416.148438 1485.03125 1430 1493.621094 1442.320312 1504.371094 C 1472.820312 1530.929688 1534.988281 1527.660156 1567.261719 1517.640625 "/>
<path fill-rule="nonzero" fill="rgb(68.527222%, 75.184631%, 32.519531%)" fill-opacity="1" d="M 1509.839844 1447.949219 C 1507.398438 1448.519531 1504.960938 1447 1504.390625 1444.550781 C 1503.820312 1442.109375 1505.339844 1439.671875 1507.78125 1439.109375 C 1510.21875 1438.539062 1512.660156 1440.058594 1513.230469 1442.5 C 1513.800781 1444.941406 1512.28125 1447.378906 1509.839844 1447.949219 Z M 1488.550781 1426.570312 C 1486.050781 1426.488281 1484.078125 1424.390625 1484.171875 1421.878906 C 1484.25 1419.378906 1486.351562 1417.410156 1488.851562 1417.5 C 1491.359375 1417.578125 1493.320312 1419.679688 1493.238281 1422.179688 C 1493.160156 1424.691406 1491.058594 1426.648438 1488.550781 1426.570312 Z M 1479.191406 1397.390625 C 1478.460938 1399.789062 1475.921875 1401.140625 1473.519531 1400.410156 C 1471.121094 1399.679688 1469.769531 1397.148438 1470.5 1394.75 C 1471.230469 1392.351562 1473.769531 1391 1476.160156 1391.730469 C 1478.558594 1392.460938 1479.921875 1394.988281 1479.191406 1397.390625 Z M 1581.671875 1489.808594 C 1540.578125 1471.46875 1492.71875 1421.820312 1482.339844 1391.378906 C 1480.109375 1384.839844 1477.769531 1379.78125 1475.460938 1375.859375 C 1473.148438 1371.941406 1469.550781 1369.371094 1465.570312 1368.238281 C 1460.148438 1366.699219 1454.011719 1367.820312 1449.359375 1371.890625 C 1445.179688 1375.550781 1441.121094 1378.539062 1437.179688 1380.96875 C 1415.820312 1394.109375 1398.269531 1390.578125 1388.140625 1386.089844 C 1382.960938 1383.800781 1379.339844 1379.019531 1378.320312 1373.441406 C 1378.289062 1373.289062 1378.261719 1373.128906 1378.230469 1372.980469 C 1376.941406 1366.5 1372.328125 1362.101562 1366.851562 1360.359375 C 1360.929688 1358.480469 1353.988281 1359.691406 1349.050781 1364.839844 C 1332.359375 1382.238281 1327.371094 1400.871094 1326.128906 1413.5 C 1325.441406 1420.589844 1329.210938 1427.210938 1335.328125 1430.371094 C 1336.398438 1430.921875 1337.539062 1431.378906 1338.738281 1431.699219 C 1361.351562 1437.769531 1410.078125 1454 1444.371094 1488.039062 C 1490.398438 1533.738281 1622.761719 1508.140625 1581.671875 1489.808594 "/>
<path fill-rule="nonzero" fill="rgb(78.929138%, 87.808228%, 61.244202%)" fill-opacity="1" d="M 1491.980469 1386.921875 C 1492.109375 1387.269531 1492.230469 1387.621094 1492.351562 1387.960938 C 1501.46875 1414.71875 1546.46875 1462.519531 1585.980469 1480.148438 C 1598.660156 1485.808594 1600.578125 1493.460938 1599.949219 1498.890625 C 1598.980469 1507.320312 1591.371094 1513.640625 1576.789062 1518.050781 C 1570.429688 1519.980469 1564.101562 1522.019531 1557.898438 1524.421875 C 1546.488281 1528.828125 1528.910156 1535.179688 1521.488281 1535.441406 L 1601.351562 1558.839844 C 1628.710938 1521.328125 1641.808594 1476.039062 1638.640625 1429.890625 L 1491.980469 1386.921875 "/>
<path fill-rule="nonzero" fill="rgb(44.477844%, 48.860168%, 34.346008%)" fill-opacity="1" d="M 1605.378906 1571.039062 C 1575.640625 1608.929688 1532.621094 1636.679688 1481.601562 1646.488281 C 1369.230469 1668.101562 1260.628906 1594.53125 1239.019531 1482.171875 C 1217.410156 1369.808594 1290.980469 1261.199219 1403.339844 1239.589844 C 1515.699219 1217.980469 1624.308594 1291.550781 1645.921875 1403.921875 C 1647.058594 1409.890625 1647.929688 1415.839844 1648.550781 1421.78125 C 1654.289062 1476.839844 1637.660156 1529.910156 1605.378906 1571.039062 Z M 1661.339844 1123.230469 L 1288.738281 1259.601562 C 1279.871094 1262.851562 1273.378906 1270.539062 1271.671875 1279.828125 L 1264.710938 1317.570312 C 1263.910156 1318.710938 1263.101562 1319.851562 1262.320312 1321.011719 C 1229.71875 1369.128906 1217.820312 1427.058594 1228.789062 1484.140625 C 1229.621094 1488.421875 1230.609375 1492.640625 1231.679688 1496.828125 L 1188.160156 1732.960938 C 1184.410156 1753.28125 1204.179688 1769.960938 1223.578125 1762.859375 L 1596.171875 1626.480469 C 1605.039062 1623.238281 1611.539062 1615.539062 1613.25 1606.261719 L 1620.199219 1568.558594 C 1650.679688 1525.460938 1664.398438 1473.378906 1658.898438 1420.699219 C 1658.238281 1414.339844 1657.308594 1408.03125 1656.140625 1401.949219 C 1655.308594 1397.648438 1654.320312 1393.421875 1653.25 1389.230469 L 1696.761719 1153.128906 C 1700.511719 1132.808594 1680.738281 1116.121094 1661.339844 1123.230469 "/>
</svg>
